%TF.GenerationSoftware,KiCad,Pcbnew,(5.99.0-7341-g2f3ca60c5e)*%
%TF.CreationDate,2021-11-12T09:56:41+01:00*%
%TF.ProjectId,MD Dumper Classic,4d442044-756d-4706-9572-20436c617373,rev?*%
%TF.SameCoordinates,Original*%
%TF.FileFunction,Legend,Top*%
%TF.FilePolarity,Positive*%
%FSLAX46Y46*%
G04 Gerber Fmt 4.6, Leading zero omitted, Abs format (unit mm)*
G04 Created by KiCad (PCBNEW (5.99.0-7341-g2f3ca60c5e)) date 2021-11-12 09:56:41*
%MOMM*%
%LPD*%
G01*
G04 APERTURE LIST*
%ADD10C,0.150000*%
%ADD11O,1.600000X1.600000*%
%ADD12C,1.524000*%
G04 APERTURE END LIST*
D10*
X126311279Y-110282380D02*
X126221994Y-110996666D01*
X126156517Y-111139523D01*
X126049375Y-111234761D01*
X125900565Y-111282380D01*
X125805327Y-111282380D01*
X127138660Y-111282380D02*
X126662470Y-111282380D01*
X126787470Y-110282380D01*
X128055327Y-111187142D02*
X128001755Y-111234761D01*
X127852946Y-111282380D01*
X127757708Y-111282380D01*
X127620803Y-111234761D01*
X127537470Y-111139523D01*
X127501755Y-111044285D01*
X127477946Y-110853809D01*
X127495803Y-110710952D01*
X127567232Y-110520476D01*
X127626755Y-110425238D01*
X127733898Y-110330000D01*
X127882708Y-110282380D01*
X127977946Y-110282380D01*
X128114851Y-110330000D01*
X128156517Y-110377619D01*
X128882708Y-110282380D02*
X128793422Y-110996666D01*
X128727946Y-111139523D01*
X128620803Y-111234761D01*
X128471994Y-111282380D01*
X128376755Y-111282380D01*
X129710089Y-111282380D02*
X129233898Y-111282380D01*
X129358898Y-110282380D01*
X130626755Y-111187142D02*
X130573184Y-111234761D01*
X130424375Y-111282380D01*
X130329136Y-111282380D01*
X130192232Y-111234761D01*
X130108898Y-111139523D01*
X130073184Y-111044285D01*
X130049375Y-110853809D01*
X130067232Y-110710952D01*
X130138660Y-110520476D01*
X130198184Y-110425238D01*
X130305327Y-110330000D01*
X130454136Y-110282380D01*
X130549375Y-110282380D01*
X130686279Y-110330000D01*
X130727946Y-110377619D01*
X131454136Y-110282380D02*
X131364851Y-110996666D01*
X131299375Y-111139523D01*
X131192232Y-111234761D01*
X131043422Y-111282380D01*
X130948184Y-111282380D01*
X132281517Y-111282380D02*
X131805327Y-111282380D01*
X131930327Y-110282380D01*
X133198184Y-111187142D02*
X133144613Y-111234761D01*
X132995803Y-111282380D01*
X132900565Y-111282380D01*
X132763660Y-111234761D01*
X132680327Y-111139523D01*
X132644613Y-111044285D01*
X132620803Y-110853809D01*
X132638660Y-110710952D01*
X132710089Y-110520476D01*
X132769613Y-110425238D01*
X132876755Y-110330000D01*
X133025565Y-110282380D01*
X133120803Y-110282380D01*
X133257708Y-110330000D01*
X133299375Y-110377619D01*
X134025565Y-110282380D02*
X133936279Y-110996666D01*
X133870803Y-111139523D01*
X133763660Y-111234761D01*
X133614851Y-111282380D01*
X133519613Y-111282380D01*
X134852946Y-111282380D02*
X134376755Y-111282380D01*
X134501755Y-110282380D01*
X135769613Y-111187142D02*
X135716041Y-111234761D01*
X135567232Y-111282380D01*
X135471994Y-111282380D01*
X135335089Y-111234761D01*
X135251755Y-111139523D01*
X135216041Y-111044285D01*
X135192232Y-110853809D01*
X135210089Y-110710952D01*
X135281517Y-110520476D01*
X135341041Y-110425238D01*
X135448184Y-110330000D01*
X135596994Y-110282380D01*
X135692232Y-110282380D01*
X135829136Y-110330000D01*
X135870803Y-110377619D01*
%TO.C,U3*%
X124768095Y-69322380D02*
X124768095Y-70131904D01*
X124815714Y-70227142D01*
X124863333Y-70274761D01*
X124958571Y-70322380D01*
X125149047Y-70322380D01*
X125244285Y-70274761D01*
X125291904Y-70227142D01*
X125339523Y-70131904D01*
X125339523Y-69322380D01*
X125720476Y-69322380D02*
X126339523Y-69322380D01*
X126006190Y-69703333D01*
X126149047Y-69703333D01*
X126244285Y-69750952D01*
X126291904Y-69798571D01*
X126339523Y-69893809D01*
X126339523Y-70131904D01*
X126291904Y-70227142D01*
X126244285Y-70274761D01*
X126149047Y-70322380D01*
X125863333Y-70322380D01*
X125768095Y-70274761D01*
X125720476Y-70227142D01*
%TO.C,U1*%
X110623095Y-68932380D02*
X110623095Y-69741904D01*
X110670714Y-69837142D01*
X110718333Y-69884761D01*
X110813571Y-69932380D01*
X111004047Y-69932380D01*
X111099285Y-69884761D01*
X111146904Y-69837142D01*
X111194523Y-69741904D01*
X111194523Y-68932380D01*
X112194523Y-69932380D02*
X111623095Y-69932380D01*
X111908809Y-69932380D02*
X111908809Y-68932380D01*
X111813571Y-69075238D01*
X111718333Y-69170476D01*
X111623095Y-69218095D01*
%TO.C,P1*%
X111552380Y-119738095D02*
X110552380Y-119738095D01*
X110552380Y-119357142D01*
X110600000Y-119261904D01*
X110647619Y-119214285D01*
X110742857Y-119166666D01*
X110885714Y-119166666D01*
X110980952Y-119214285D01*
X111028571Y-119261904D01*
X111076190Y-119357142D01*
X111076190Y-119738095D01*
X111552380Y-118214285D02*
X111552380Y-118785714D01*
X111552380Y-118500000D02*
X110552380Y-118500000D01*
X110695238Y-118595238D01*
X110790476Y-118690476D01*
X110838095Y-118785714D01*
%TO.C,U2*%
X138853095Y-69322380D02*
X138853095Y-70131904D01*
X138900714Y-70227142D01*
X138948333Y-70274761D01*
X139043571Y-70322380D01*
X139234047Y-70322380D01*
X139329285Y-70274761D01*
X139376904Y-70227142D01*
X139424523Y-70131904D01*
X139424523Y-69322380D01*
X139853095Y-69417619D02*
X139900714Y-69370000D01*
X139995952Y-69322380D01*
X140234047Y-69322380D01*
X140329285Y-69370000D01*
X140376904Y-69417619D01*
X140424523Y-69512857D01*
X140424523Y-69608095D01*
X140376904Y-69750952D01*
X139805476Y-70322380D01*
X140424523Y-70322380D01*
%TO.C,G2*%
G36*
X171028037Y-114772225D02*
G01*
X171428626Y-114774848D01*
X171721213Y-114781220D01*
X171924368Y-114792978D01*
X172056660Y-114811759D01*
X172136660Y-114839200D01*
X172182938Y-114876937D01*
X172211892Y-114922528D01*
X172264648Y-115032448D01*
X172280716Y-115117176D01*
X172245251Y-115179983D01*
X172143409Y-115224138D01*
X171960345Y-115252911D01*
X171681215Y-115269572D01*
X171291173Y-115277391D01*
X170775376Y-115279638D01*
X170590373Y-115279714D01*
X170118998Y-115277640D01*
X169697104Y-115271828D01*
X169346060Y-115262899D01*
X169087235Y-115251469D01*
X168941997Y-115238159D01*
X168918953Y-115231333D01*
X168883502Y-115129827D01*
X168870572Y-114977333D01*
X168870572Y-114771714D01*
X170500875Y-114771714D01*
X171028037Y-114772225D01*
G37*
G36*
X189317572Y-115366807D02*
G01*
X189734857Y-115388571D01*
X189755826Y-116023571D01*
X189776794Y-116658571D01*
X188900286Y-116658571D01*
X188900286Y-115345042D01*
X189317572Y-115366807D01*
G37*
G36*
X179883531Y-114773073D02*
G01*
X180295535Y-114778044D01*
X180605680Y-114788785D01*
X180828392Y-114807478D01*
X180978099Y-114836303D01*
X181069227Y-114877443D01*
X181116204Y-114933079D01*
X181133457Y-115005393D01*
X181135413Y-115096565D01*
X181135143Y-115140507D01*
X181129975Y-115178777D01*
X181104666Y-115209310D01*
X181044510Y-115232977D01*
X180934799Y-115250650D01*
X180760828Y-115263203D01*
X180507889Y-115271507D01*
X180161275Y-115276436D01*
X179706281Y-115278861D01*
X179128199Y-115279656D01*
X178788667Y-115279714D01*
X178218933Y-115278270D01*
X177696155Y-115274174D01*
X177237890Y-115267782D01*
X176861700Y-115259447D01*
X176585142Y-115249525D01*
X176425777Y-115238370D01*
X176393810Y-115231333D01*
X176358359Y-115129827D01*
X176345429Y-114977333D01*
X176345429Y-114771714D01*
X178696236Y-114771714D01*
X179355240Y-114771690D01*
X179883531Y-114773073D01*
G37*
G36*
X180754143Y-115366807D02*
G01*
X181171429Y-115388571D01*
X181213365Y-116658571D01*
X180336857Y-116658571D01*
X180336857Y-115345042D01*
X180754143Y-115366807D01*
G37*
G36*
X169741429Y-116658571D02*
G01*
X168870572Y-116658571D01*
X168870572Y-115352285D01*
X169741429Y-115352285D01*
X169741429Y-116658571D01*
G37*
G36*
X175910000Y-115279714D02*
G01*
X175111714Y-115279714D01*
X175111714Y-114771714D01*
X175910000Y-114771714D01*
X175910000Y-115279714D01*
G37*
G36*
X191862429Y-115366952D02*
G01*
X192274857Y-115388571D01*
X192264800Y-115770535D01*
X192241592Y-116011122D01*
X192193479Y-116202819D01*
X192159520Y-116267236D01*
X192110128Y-116362174D01*
X192161867Y-116451723D01*
X192242149Y-116518658D01*
X192420000Y-116655344D01*
X191984572Y-116655344D01*
X191678302Y-116637363D01*
X191468346Y-116576496D01*
X191367714Y-116513428D01*
X191252394Y-116443127D01*
X191102082Y-116399774D01*
X190881320Y-116377401D01*
X190554647Y-116370039D01*
X190515000Y-116369899D01*
X189843714Y-116368286D01*
X189843714Y-115865196D01*
X191404000Y-115824000D01*
X191427000Y-115584666D01*
X191450001Y-115345332D01*
X191862429Y-115366952D01*
G37*
G36*
X182441429Y-116658571D02*
G01*
X181570572Y-116658571D01*
X181570572Y-115352285D01*
X182441429Y-115352285D01*
X182441429Y-116658571D01*
G37*
G36*
X186034589Y-115363889D02*
G01*
X186179567Y-115393820D01*
X186215143Y-115422864D01*
X186284401Y-115451520D01*
X186478935Y-115477045D01*
X186778885Y-115497696D01*
X187164390Y-115511733D01*
X187249286Y-115513579D01*
X188283429Y-115533714D01*
X188283429Y-116041714D01*
X187267429Y-116081133D01*
X186251429Y-116120551D01*
X188464857Y-116150571D01*
X188464857Y-116658571D01*
X187027943Y-116658571D01*
X186473351Y-116655319D01*
X186053540Y-116645173D01*
X185758284Y-116627550D01*
X185577359Y-116601864D01*
X185503943Y-116571485D01*
X185456683Y-116449485D01*
X185426418Y-116211497D01*
X185416857Y-115918343D01*
X185416857Y-115352285D01*
X185816000Y-115352285D01*
X186034589Y-115363889D01*
G37*
G36*
X173384351Y-115733285D02*
G01*
X173406286Y-116114286D01*
X175075429Y-116114286D01*
X175097364Y-115733285D01*
X175119300Y-115352285D01*
X175910000Y-115352285D01*
X175910000Y-115918343D01*
X175898502Y-116237032D01*
X175866544Y-116465709D01*
X175822915Y-116571485D01*
X175720541Y-116602657D01*
X175500134Y-116627436D01*
X175188663Y-116645824D01*
X174813095Y-116657819D01*
X174400400Y-116663423D01*
X173977547Y-116662635D01*
X173571503Y-116655455D01*
X173209238Y-116641883D01*
X172917720Y-116621919D01*
X172723919Y-116595563D01*
X172658800Y-116571485D01*
X172611540Y-116449485D01*
X172581276Y-116211497D01*
X172571715Y-115918343D01*
X172571715Y-115352285D01*
X173362415Y-115352285D01*
X173384351Y-115733285D01*
G37*
G36*
X179103143Y-116658571D02*
G01*
X178226635Y-116658571D01*
X178247603Y-116023571D01*
X178268572Y-115388571D01*
X178685857Y-115366807D01*
X179103143Y-115345042D01*
X179103143Y-116658571D01*
G37*
G36*
X172281429Y-115819275D02*
G01*
X172270480Y-116096807D01*
X172242077Y-116340908D01*
X172210654Y-116472418D01*
X172139878Y-116658571D01*
X169814000Y-116658571D01*
X169814000Y-116150571D01*
X171410572Y-116150571D01*
X171410572Y-115352285D01*
X172281429Y-115352285D01*
X172281429Y-115819275D01*
G37*
G36*
X173370000Y-115279714D02*
G01*
X172571715Y-115279714D01*
X172571715Y-114771714D01*
X173370000Y-114771714D01*
X173370000Y-115279714D01*
G37*
G36*
X192225547Y-114983259D02*
G01*
X192265018Y-115144011D01*
X192257397Y-115236673D01*
X192256836Y-115237259D01*
X192175118Y-115249409D01*
X191969293Y-115260203D01*
X191660392Y-115269114D01*
X191269449Y-115275618D01*
X190817496Y-115279190D01*
X190557334Y-115279714D01*
X188900286Y-115279714D01*
X188900286Y-115112800D01*
X188907131Y-115004915D01*
X188939112Y-114922512D01*
X189013403Y-114862171D01*
X189147175Y-114820473D01*
X189357601Y-114793997D01*
X189661852Y-114779326D01*
X190077100Y-114773038D01*
X190613129Y-114771714D01*
X192151802Y-114771714D01*
X192225547Y-114983259D01*
G37*
G36*
X183789446Y-114772274D02*
G01*
X184176806Y-114775125D01*
X184457141Y-114782025D01*
X184649505Y-114794730D01*
X184772958Y-114814997D01*
X184846557Y-114844583D01*
X184889359Y-114885245D01*
X184911892Y-114922528D01*
X184964532Y-115032068D01*
X184980796Y-115116600D01*
X184945877Y-115179354D01*
X184844970Y-115223565D01*
X184663271Y-115252463D01*
X184385974Y-115269283D01*
X183998274Y-115277256D01*
X183485366Y-115279616D01*
X183276000Y-115279714D01*
X182732577Y-115278290D01*
X182317779Y-115273341D01*
X182015108Y-115263853D01*
X181808070Y-115248810D01*
X181680167Y-115227197D01*
X181614904Y-115198000D01*
X181598991Y-115176528D01*
X181599358Y-115035126D01*
X181640108Y-114922528D01*
X181672515Y-114872765D01*
X181721943Y-114835349D01*
X181807449Y-114808522D01*
X181948091Y-114790526D01*
X182162927Y-114779606D01*
X182471013Y-114774005D01*
X182891408Y-114771964D01*
X183276000Y-114771714D01*
X183789446Y-114772274D01*
G37*
G36*
X177216286Y-116658571D02*
G01*
X176345429Y-116658571D01*
X176345429Y-115352285D01*
X177216286Y-115352285D01*
X177216286Y-116658571D01*
G37*
G36*
X188451313Y-115007571D02*
G01*
X188428572Y-115243428D01*
X186922715Y-115263044D01*
X185416857Y-115282659D01*
X185416857Y-114771714D01*
X188474053Y-114771714D01*
X188451313Y-115007571D01*
G37*
G36*
X184981429Y-115698995D02*
G01*
X184956780Y-115954340D01*
X184893773Y-116162684D01*
X184868457Y-116206995D01*
X184818760Y-116268325D01*
X184753852Y-116311755D01*
X184650169Y-116340367D01*
X184484148Y-116357241D01*
X184232228Y-116365457D01*
X183870846Y-116368095D01*
X183634742Y-116368286D01*
X182514000Y-116368286D01*
X182514000Y-115865196D01*
X184074286Y-115824000D01*
X184097027Y-115588143D01*
X184119768Y-115352285D01*
X184981429Y-115352285D01*
X184981429Y-115698995D01*
G37*
%TO.C,U3*%
X121775000Y-70835000D02*
X121775000Y-72105000D01*
X121775000Y-72105000D02*
X120840000Y-72105000D01*
X121775000Y-98285000D02*
X121775000Y-97015000D01*
X121775000Y-98285000D02*
X129125000Y-98285000D01*
X129125000Y-70835000D02*
X129125000Y-72105000D01*
X129125000Y-98285000D02*
X129125000Y-97015000D01*
X121775000Y-70835000D02*
X129125000Y-70835000D01*
%TO.C,U1*%
X115160000Y-98285000D02*
X115160000Y-97015000D01*
X107810000Y-70835000D02*
X115160000Y-70835000D01*
X115160000Y-70835000D02*
X115160000Y-72105000D01*
X107810000Y-70835000D02*
X107810000Y-72105000D01*
X107810000Y-98285000D02*
X115160000Y-98285000D01*
X107810000Y-72105000D02*
X106875000Y-72105000D01*
X107810000Y-98285000D02*
X107810000Y-97015000D01*
%TO.C,P1*%
X115295000Y-118865000D02*
X115295000Y-119800000D01*
X166875000Y-118865000D02*
X166875000Y-103895000D01*
X166875000Y-118865000D02*
X165605000Y-118865000D01*
X166875000Y-103895000D02*
X165605000Y-103895000D01*
X114025000Y-118865000D02*
X115295000Y-118865000D01*
X114025000Y-118865000D02*
X114025000Y-103895000D01*
X114025000Y-103895000D02*
X115295000Y-103895000D01*
%TO.C,U2*%
X136200000Y-98285000D02*
X143550000Y-98285000D01*
X136200000Y-70835000D02*
X136200000Y-72105000D01*
X136200000Y-98285000D02*
X136200000Y-97015000D01*
X136200000Y-72105000D02*
X135265000Y-72105000D01*
X136200000Y-70835000D02*
X143550000Y-70835000D01*
X143550000Y-70835000D02*
X143550000Y-72105000D01*
X143550000Y-98285000D02*
X143550000Y-97015000D01*
%TO.C,G1*%
G36*
X187196628Y-104838872D02*
G01*
X187287575Y-104881138D01*
X187408573Y-104943494D01*
X187538232Y-105014539D01*
X187655159Y-105082873D01*
X187737962Y-105137096D01*
X187740562Y-105139035D01*
X187764130Y-105162470D01*
X187769875Y-105192635D01*
X187751489Y-105237902D01*
X187702662Y-105306643D01*
X187617083Y-105407227D01*
X187488444Y-105548025D01*
X187310433Y-105737409D01*
X187208239Y-105845247D01*
X187006210Y-106058544D01*
X186806635Y-106269916D01*
X186623167Y-106464853D01*
X186469460Y-106628847D01*
X186359168Y-106747386D01*
X186352027Y-106755124D01*
X186213547Y-106899031D01*
X186114707Y-106982621D01*
X186043145Y-107012217D01*
X185986500Y-106994138D01*
X185951783Y-106959765D01*
X185944857Y-106928551D01*
X185959842Y-106870146D01*
X186000532Y-106777339D01*
X186070719Y-106642921D01*
X186174197Y-106459680D01*
X186314758Y-106220405D01*
X186496194Y-105917885D01*
X186524215Y-105871496D01*
X186684649Y-105606190D01*
X186830502Y-105365236D01*
X186956161Y-105157892D01*
X187056010Y-104993412D01*
X187124435Y-104881052D01*
X187155823Y-104830067D01*
X187157125Y-104828097D01*
X187196628Y-104838872D01*
G37*
G36*
X188903611Y-106372944D02*
G01*
X188958551Y-106475596D01*
X189015307Y-106602824D01*
X189063787Y-106730114D01*
X189093901Y-106832947D01*
X189095561Y-106886809D01*
X189094564Y-106887922D01*
X189048360Y-106905621D01*
X188932909Y-106942454D01*
X188760406Y-106994924D01*
X188543044Y-107059533D01*
X188293017Y-107132785D01*
X188022517Y-107211182D01*
X187743739Y-107291227D01*
X187468877Y-107369423D01*
X187210122Y-107442272D01*
X186979671Y-107506277D01*
X186789715Y-107557941D01*
X186652448Y-107593766D01*
X186580064Y-107610256D01*
X186573647Y-107610948D01*
X186539735Y-107577519D01*
X186523623Y-107544097D01*
X186501249Y-107476803D01*
X186497970Y-107459702D01*
X186534357Y-107435690D01*
X186636022Y-107381200D01*
X186791720Y-107301661D01*
X186990209Y-107202499D01*
X187220245Y-107089140D01*
X187470584Y-106967011D01*
X187729982Y-106841540D01*
X187987195Y-106718154D01*
X188230980Y-106602278D01*
X188450093Y-106499339D01*
X188633290Y-106414766D01*
X188769329Y-106353983D01*
X188846963Y-106322419D01*
X188860575Y-106319385D01*
X188903611Y-106372944D01*
G37*
G36*
X189261051Y-107358848D02*
G01*
X189282310Y-107415741D01*
X189303053Y-107532409D01*
X189318954Y-107684192D01*
X189319558Y-107692448D01*
X189340942Y-107991314D01*
X188965463Y-107991411D01*
X188810945Y-107992682D01*
X188590396Y-107996181D01*
X188322272Y-108001529D01*
X188025026Y-108008347D01*
X187717115Y-108016256D01*
X187603903Y-108019391D01*
X186617823Y-108047272D01*
X186631857Y-107926729D01*
X186645890Y-107806185D01*
X187934909Y-107565150D01*
X188254565Y-107506673D01*
X188547718Y-107455527D01*
X188804017Y-107413321D01*
X189013110Y-107381666D01*
X189164646Y-107362173D01*
X189248275Y-107356451D01*
X189261051Y-107358848D01*
G37*
G36*
X176614413Y-104612920D02*
G01*
X176620223Y-104696718D01*
X176627374Y-104856731D01*
X176635624Y-105084660D01*
X176644734Y-105372211D01*
X176654465Y-105711086D01*
X176664575Y-106092988D01*
X176674825Y-106509621D01*
X176684976Y-106952689D01*
X176693188Y-107336239D01*
X176703118Y-107799072D01*
X176713343Y-108245600D01*
X176723620Y-108667069D01*
X176733707Y-109054722D01*
X176743360Y-109399803D01*
X176752337Y-109693558D01*
X176760394Y-109927231D01*
X176767288Y-110092065D01*
X176771753Y-110167853D01*
X176798636Y-110505956D01*
X177876340Y-108919010D01*
X178149815Y-108516335D01*
X178452265Y-108071038D01*
X178770906Y-107601939D01*
X179092954Y-107127856D01*
X179405626Y-106667606D01*
X179696139Y-106240009D01*
X179947222Y-105870487D01*
X180940400Y-104408909D01*
X180968188Y-104625819D01*
X180974196Y-104708061D01*
X180981450Y-104866351D01*
X180989705Y-105092226D01*
X180998718Y-105377220D01*
X181008244Y-105712868D01*
X181018038Y-106090707D01*
X181027856Y-106502273D01*
X181037453Y-106939099D01*
X181043417Y-107230582D01*
X181053175Y-107718081D01*
X181063294Y-108216975D01*
X181073498Y-108714041D01*
X181083510Y-109196057D01*
X181093052Y-109649800D01*
X181101849Y-110062047D01*
X181109624Y-110419576D01*
X181116100Y-110709164D01*
X181117499Y-110770099D01*
X181144140Y-111921763D01*
X176381299Y-111921763D01*
X175644810Y-111921715D01*
X174988313Y-111921522D01*
X174407276Y-111921114D01*
X173897163Y-111920420D01*
X173453442Y-111919368D01*
X173071580Y-111917888D01*
X172747042Y-111915908D01*
X172475295Y-111913358D01*
X172251806Y-111910167D01*
X172072042Y-111906264D01*
X171931467Y-111901577D01*
X171825550Y-111896035D01*
X171749757Y-111889568D01*
X171699554Y-111882105D01*
X171670408Y-111873574D01*
X171657784Y-111863905D01*
X171657151Y-111853027D01*
X171659522Y-111847803D01*
X171690303Y-111799011D01*
X171763238Y-111686731D01*
X171873755Y-111517910D01*
X172017280Y-111299496D01*
X172189241Y-111038437D01*
X172385065Y-110741681D01*
X172600178Y-110416174D01*
X172830008Y-110068864D01*
X172897198Y-109967414D01*
X173180184Y-109540057D01*
X173497749Y-109060208D01*
X173837945Y-108545940D01*
X174188821Y-108015325D01*
X174538428Y-107486437D01*
X174874815Y-106977349D01*
X175186032Y-106506134D01*
X175340566Y-106272048D01*
X176587321Y-104383113D01*
X176614413Y-104612920D01*
G37*
G36*
X188306100Y-105615421D02*
G01*
X188389486Y-105704938D01*
X188453405Y-105776999D01*
X188492303Y-105838428D01*
X188500626Y-105896049D01*
X188472822Y-105956686D01*
X188403337Y-106027163D01*
X188286618Y-106114304D01*
X188117112Y-106224933D01*
X187889265Y-106365874D01*
X187597524Y-106543952D01*
X187503832Y-106601274D01*
X187232780Y-106766741D01*
X186983896Y-106917533D01*
X186766611Y-107048026D01*
X186590354Y-107152598D01*
X186464557Y-107225624D01*
X186398652Y-107261482D01*
X186392231Y-107264092D01*
X186326176Y-107245967D01*
X186291768Y-107215610D01*
X186286383Y-107189427D01*
X186306473Y-107146148D01*
X186357644Y-107079925D01*
X186445498Y-106984909D01*
X186575643Y-106855252D01*
X186753681Y-106685105D01*
X186985217Y-106468620D01*
X187183175Y-106285408D01*
X188125092Y-105416066D01*
X188306100Y-105615421D01*
G37*
G36*
X184765192Y-111964026D02*
G01*
X182313944Y-111964026D01*
X182313944Y-104356705D01*
X184765192Y-104356705D01*
X184765192Y-111964026D01*
G37*
G36*
X185383005Y-104374902D02*
G01*
X185584928Y-104397651D01*
X185715439Y-104420172D01*
X185787528Y-104446840D01*
X185814185Y-104482031D01*
X185811527Y-104519265D01*
X185799419Y-104578087D01*
X185774391Y-104708502D01*
X185738604Y-104898936D01*
X185694220Y-105137814D01*
X185643400Y-105413558D01*
X185588305Y-105714595D01*
X185587377Y-105719683D01*
X185525725Y-106055911D01*
X185476420Y-106318081D01*
X185437046Y-106515361D01*
X185405187Y-106656920D01*
X185378427Y-106751926D01*
X185354351Y-106809548D01*
X185330542Y-106838954D01*
X185304585Y-106849313D01*
X185289472Y-106850216D01*
X185241334Y-106842565D01*
X185210930Y-106807758D01*
X185191489Y-106728015D01*
X185176236Y-106585557D01*
X185172752Y-106543810D01*
X185164017Y-106409049D01*
X185153888Y-106207493D01*
X185143112Y-105956847D01*
X185132433Y-105674814D01*
X185122599Y-105379098D01*
X185119960Y-105291535D01*
X185092167Y-104345666D01*
X185383005Y-104374902D01*
G37*
G36*
X186369026Y-104555950D02*
G01*
X186505380Y-104584487D01*
X186642822Y-104621790D01*
X186755120Y-104661471D01*
X186816045Y-104697145D01*
X186818244Y-104700151D01*
X186805060Y-104744587D01*
X186758158Y-104851969D01*
X186683421Y-105010774D01*
X186586735Y-105209478D01*
X186473982Y-105436556D01*
X186351048Y-105680484D01*
X186223817Y-105929738D01*
X186098174Y-106172794D01*
X185980001Y-106398128D01*
X185875184Y-106594215D01*
X185789607Y-106749530D01*
X185729155Y-106852551D01*
X185699710Y-106891753D01*
X185699167Y-106891832D01*
X185645220Y-106871369D01*
X185616506Y-106854854D01*
X185602795Y-106829615D01*
X185602046Y-106773266D01*
X185616023Y-106677591D01*
X185646491Y-106534373D01*
X185695212Y-106335397D01*
X185763952Y-106072447D01*
X185854473Y-105737307D01*
X185863608Y-105703837D01*
X185944972Y-105409284D01*
X186020798Y-105141123D01*
X186087850Y-104910300D01*
X186142891Y-104727761D01*
X186182687Y-104604451D01*
X186204001Y-104551315D01*
X186204504Y-104550717D01*
X186259991Y-104542564D01*
X186369026Y-104555950D01*
G37*
G36*
X189329584Y-108495706D02*
G01*
X189305730Y-108747373D01*
X189239185Y-109045376D01*
X189137478Y-109368058D01*
X189008137Y-109693765D01*
X188858692Y-110000841D01*
X188731721Y-110215471D01*
X188394630Y-110664690D01*
X188014175Y-111044161D01*
X187587377Y-111355641D01*
X187111261Y-111600885D01*
X186582850Y-111781649D01*
X185999165Y-111899689D01*
X185841889Y-111919876D01*
X185544872Y-111949719D01*
X185328436Y-111961841D01*
X185190526Y-111956290D01*
X185131470Y-111935851D01*
X185124361Y-111888011D01*
X185117911Y-111766341D01*
X185112353Y-111581537D01*
X185107924Y-111344292D01*
X185104858Y-111065302D01*
X185103389Y-110755261D01*
X185103295Y-110652391D01*
X185103295Y-109397105D01*
X185409701Y-109377097D01*
X185740095Y-109318083D01*
X186024822Y-109188348D01*
X186261104Y-108989837D01*
X186446164Y-108724495D01*
X186499188Y-108614195D01*
X186603628Y-108373123D01*
X187966606Y-108372401D01*
X189329584Y-108371680D01*
X189329584Y-108495706D01*
G37*
%TD*%
D11*
%TO.C,U3*%
X121640000Y-73130000D03*
X121640000Y-75670000D03*
X121640000Y-78210000D03*
X121640000Y-80750000D03*
X121640000Y-83290000D03*
X121640000Y-85830000D03*
X121640000Y-88370000D03*
X121640000Y-90910000D03*
X121640000Y-93450000D03*
X121640000Y-95990000D03*
X129260000Y-95990000D03*
X129260000Y-93450000D03*
X129260000Y-90910000D03*
X129260000Y-88370000D03*
X129260000Y-85830000D03*
X129260000Y-83290000D03*
X129260000Y-80750000D03*
X129260000Y-78210000D03*
X129260000Y-75670000D03*
X129260000Y-73130000D03*
%TD*%
%TO.C,U1*%
X107675000Y-73130000D03*
X107675000Y-75670000D03*
X107675000Y-78210000D03*
X107675000Y-80750000D03*
X107675000Y-83290000D03*
X107675000Y-85830000D03*
X107675000Y-88370000D03*
X107675000Y-90910000D03*
X107675000Y-93450000D03*
X107675000Y-95990000D03*
X115295000Y-95990000D03*
X115295000Y-93450000D03*
X115295000Y-90910000D03*
X115295000Y-88370000D03*
X115295000Y-85830000D03*
X115295000Y-83290000D03*
X115295000Y-80750000D03*
X115295000Y-78210000D03*
X115295000Y-75670000D03*
X115295000Y-73130000D03*
%TD*%
%TO.C,P1*%
X146800000Y-103760000D03*
X144260000Y-103760000D03*
X116320000Y-119000000D03*
X118860000Y-119000000D03*
X121400000Y-119000000D03*
X123940000Y-119000000D03*
X126480000Y-119000000D03*
X129020000Y-119000000D03*
X131560000Y-119000000D03*
X134100000Y-119000000D03*
X136640000Y-119000000D03*
X139180000Y-119000000D03*
X141720000Y-119000000D03*
X144260000Y-119000000D03*
X146800000Y-119000000D03*
X149340000Y-119000000D03*
X151880000Y-119000000D03*
X154420000Y-119000000D03*
X156960000Y-119000000D03*
X159500000Y-119000000D03*
X162040000Y-119000000D03*
X164580000Y-119000000D03*
X164580000Y-103760000D03*
X162040000Y-103760000D03*
X159500000Y-103760000D03*
X156960000Y-103760000D03*
X154420000Y-103760000D03*
X151880000Y-103760000D03*
X149340000Y-103760000D03*
X141720000Y-103760000D03*
X139180000Y-103760000D03*
X136640000Y-103760000D03*
X134100000Y-103760000D03*
X131560000Y-103760000D03*
X129020000Y-103760000D03*
X126480000Y-103760000D03*
X123940000Y-103760000D03*
X121400000Y-103760000D03*
X118860000Y-103760000D03*
X116320000Y-103760000D03*
%TD*%
%TO.C,U2*%
X136065000Y-73130000D03*
X136065000Y-75670000D03*
X136065000Y-78210000D03*
X136065000Y-80750000D03*
X136065000Y-83290000D03*
X136065000Y-85830000D03*
X136065000Y-88370000D03*
X136065000Y-90910000D03*
X136065000Y-93450000D03*
X136065000Y-95990000D03*
X143685000Y-95990000D03*
X143685000Y-93450000D03*
X143685000Y-90910000D03*
X143685000Y-88370000D03*
X143685000Y-85830000D03*
X143685000Y-83290000D03*
X143685000Y-80750000D03*
X143685000Y-78210000D03*
X143685000Y-75670000D03*
X143685000Y-73130000D03*
%TD*%
D12*
%TO.C,Classic 12/2020*%
X113380000Y-60010000D03*
X115920000Y-60010000D03*
X118460000Y-60010000D03*
X121000000Y-60010000D03*
X123540000Y-60010000D03*
X126080000Y-60010000D03*
X128620000Y-60010000D03*
X131160000Y-60010000D03*
X133700000Y-60010000D03*
X136240000Y-60010000D03*
X138780000Y-60010000D03*
X141320000Y-60010000D03*
X143860000Y-60010000D03*
X146400000Y-60010000D03*
X148940000Y-60010000D03*
X151480000Y-60010000D03*
X154020000Y-60010000D03*
X156560000Y-60010000D03*
X159100000Y-60010000D03*
X161640000Y-60010000D03*
X164180000Y-60010000D03*
X166720000Y-60010000D03*
X169260000Y-60010000D03*
X171800000Y-60010000D03*
X174340000Y-60010000D03*
X176880000Y-60010000D03*
X179420000Y-60010000D03*
X181960000Y-60010000D03*
X184500000Y-60010000D03*
X187040000Y-60010000D03*
X189580000Y-60010000D03*
X192120000Y-60010000D03*
X113380000Y-64980000D03*
X115920000Y-64980000D03*
X118460000Y-64980000D03*
X121000000Y-64980000D03*
X123540000Y-64980000D03*
X126080000Y-64980000D03*
X128620000Y-64980000D03*
X131160000Y-64980000D03*
X133700000Y-64980000D03*
X136240000Y-64980000D03*
X138780000Y-64980000D03*
X141320000Y-64980000D03*
X143860000Y-64980000D03*
X146400000Y-64980000D03*
X148940000Y-64980000D03*
X151480000Y-64980000D03*
X154020000Y-64980000D03*
X156560000Y-64980000D03*
X159100000Y-64980000D03*
X161640000Y-64980000D03*
X164180000Y-64980000D03*
X166720000Y-64980000D03*
X169260000Y-64980000D03*
X171800000Y-64980000D03*
X174340000Y-64980000D03*
X176880000Y-64980000D03*
X179420000Y-64980000D03*
X181960000Y-64980000D03*
X184500000Y-64980000D03*
X187040000Y-64980000D03*
X189580000Y-64980000D03*
X192120000Y-64980000D03*
%TD*%
M02*
