%TF.GenerationSoftware,KiCad,Pcbnew,(5.99.0-7341-g2f3ca60c5e)*%
%TF.CreationDate,2021-11-12T09:56:42+01:00*%
%TF.ProjectId,MD Dumper Classic,4d442044-756d-4706-9572-20436c617373,rev?*%
%TF.SameCoordinates,Original*%
%TF.FileFunction,Soldermask,Bot*%
%TF.FilePolarity,Negative*%
%FSLAX46Y46*%
G04 Gerber Fmt 4.6, Leading zero omitted, Abs format (unit mm)*
G04 Created by KiCad (PCBNEW (5.99.0-7341-g2f3ca60c5e)) date 2021-11-12 09:56:42*
%MOMM*%
%LPD*%
G01*
G04 APERTURE LIST*
%ADD10O,1.600000X1.600000*%
%ADD11C,3.200000*%
%ADD12C,1.524000*%
G04 APERTURE END LIST*
D10*
%TO.C,U3*%
X121640000Y-73130000D03*
X121640000Y-75670000D03*
X121640000Y-78210000D03*
X121640000Y-80750000D03*
X121640000Y-83290000D03*
X121640000Y-85830000D03*
X121640000Y-88370000D03*
X121640000Y-90910000D03*
X121640000Y-93450000D03*
X121640000Y-95990000D03*
X129260000Y-95990000D03*
X129260000Y-93450000D03*
X129260000Y-90910000D03*
X129260000Y-88370000D03*
X129260000Y-85830000D03*
X129260000Y-83290000D03*
X129260000Y-80750000D03*
X129260000Y-78210000D03*
X129260000Y-75670000D03*
X129260000Y-73130000D03*
%TD*%
%TO.C,U1*%
X107675000Y-73130000D03*
X107675000Y-75670000D03*
X107675000Y-78210000D03*
X107675000Y-80750000D03*
X107675000Y-83290000D03*
X107675000Y-85830000D03*
X107675000Y-88370000D03*
X107675000Y-90910000D03*
X107675000Y-93450000D03*
X107675000Y-95990000D03*
X115295000Y-95990000D03*
X115295000Y-93450000D03*
X115295000Y-90910000D03*
X115295000Y-88370000D03*
X115295000Y-85830000D03*
X115295000Y-83290000D03*
X115295000Y-80750000D03*
X115295000Y-78210000D03*
X115295000Y-75670000D03*
X115295000Y-73130000D03*
%TD*%
D11*
%TO.C,M1*%
X108940000Y-116450000D03*
%TD*%
%TO.C,M4*%
X108550000Y-54930000D03*
%TD*%
D10*
%TO.C,P1*%
X146800000Y-103760000D03*
X144260000Y-103760000D03*
X116320000Y-119000000D03*
X118860000Y-119000000D03*
X121400000Y-119000000D03*
X123940000Y-119000000D03*
X126480000Y-119000000D03*
X129020000Y-119000000D03*
X131560000Y-119000000D03*
X134100000Y-119000000D03*
X136640000Y-119000000D03*
X139180000Y-119000000D03*
X141720000Y-119000000D03*
X144260000Y-119000000D03*
X146800000Y-119000000D03*
X149340000Y-119000000D03*
X151880000Y-119000000D03*
X154420000Y-119000000D03*
X156960000Y-119000000D03*
X159500000Y-119000000D03*
X162040000Y-119000000D03*
X164580000Y-119000000D03*
X164580000Y-103760000D03*
X162040000Y-103760000D03*
X159500000Y-103760000D03*
X156960000Y-103760000D03*
X154420000Y-103760000D03*
X151880000Y-103760000D03*
X149340000Y-103760000D03*
X141720000Y-103760000D03*
X139180000Y-103760000D03*
X136640000Y-103760000D03*
X134100000Y-103760000D03*
X131560000Y-103760000D03*
X129020000Y-103760000D03*
X126480000Y-103760000D03*
X123940000Y-103760000D03*
X121400000Y-103760000D03*
X118860000Y-103760000D03*
X116320000Y-103760000D03*
%TD*%
%TO.C,U2*%
X136065000Y-73130000D03*
X136065000Y-75670000D03*
X136065000Y-78210000D03*
X136065000Y-80750000D03*
X136065000Y-83290000D03*
X136065000Y-85830000D03*
X136065000Y-88370000D03*
X136065000Y-90910000D03*
X136065000Y-93450000D03*
X136065000Y-95990000D03*
X143685000Y-95990000D03*
X143685000Y-93450000D03*
X143685000Y-90910000D03*
X143685000Y-88370000D03*
X143685000Y-85830000D03*
X143685000Y-83290000D03*
X143685000Y-80750000D03*
X143685000Y-78210000D03*
X143685000Y-75670000D03*
X143685000Y-73130000D03*
%TD*%
D11*
%TO.C,M3*%
X196880000Y-54020000D03*
%TD*%
%TO.C,M2*%
X196880000Y-116300000D03*
%TD*%
D12*
%TO.C,Classic 12/2020*%
X113380000Y-60010000D03*
X115920000Y-60010000D03*
X118460000Y-60010000D03*
X121000000Y-60010000D03*
X123540000Y-60010000D03*
X126080000Y-60010000D03*
X128620000Y-60010000D03*
X131160000Y-60010000D03*
X133700000Y-60010000D03*
X136240000Y-60010000D03*
X138780000Y-60010000D03*
X141320000Y-60010000D03*
X143860000Y-60010000D03*
X146400000Y-60010000D03*
X148940000Y-60010000D03*
X151480000Y-60010000D03*
X154020000Y-60010000D03*
X156560000Y-60010000D03*
X159100000Y-60010000D03*
X161640000Y-60010000D03*
X164180000Y-60010000D03*
X166720000Y-60010000D03*
X169260000Y-60010000D03*
X171800000Y-60010000D03*
X174340000Y-60010000D03*
X176880000Y-60010000D03*
X179420000Y-60010000D03*
X181960000Y-60010000D03*
X184500000Y-60010000D03*
X187040000Y-60010000D03*
X189580000Y-60010000D03*
X192120000Y-60010000D03*
X113380000Y-64980000D03*
X115920000Y-64980000D03*
X118460000Y-64980000D03*
X121000000Y-64980000D03*
X123540000Y-64980000D03*
X126080000Y-64980000D03*
X128620000Y-64980000D03*
X131160000Y-64980000D03*
X133700000Y-64980000D03*
X136240000Y-64980000D03*
X138780000Y-64980000D03*
X141320000Y-64980000D03*
X143860000Y-64980000D03*
X146400000Y-64980000D03*
X148940000Y-64980000D03*
X151480000Y-64980000D03*
X154020000Y-64980000D03*
X156560000Y-64980000D03*
X159100000Y-64980000D03*
X161640000Y-64980000D03*
X164180000Y-64980000D03*
X166720000Y-64980000D03*
X169260000Y-64980000D03*
X171800000Y-64980000D03*
X174340000Y-64980000D03*
X176880000Y-64980000D03*
X179420000Y-64980000D03*
X181960000Y-64980000D03*
X184500000Y-64980000D03*
X187040000Y-64980000D03*
X189580000Y-64980000D03*
X192120000Y-64980000D03*
%TD*%
M02*
