M48
; DRILL file {KiCad (5.99.0-7341-g2f3ca60c5e)} date 11/12/21 09:56:44
; FORMAT={-:-/ absolute / inch / decimal}
; #@! TF.CreationDate,2021-11-12T09:56:44+01:00
; #@! TF.GenerationSoftware,Kicad,Pcbnew,(5.99.0-7341-g2f3ca60c5e)
; #@! TF.FileFunction,Plated,1,2,PTH
FMAT,2
INCH
T1C0.0157
T2C0.0315
T3C0.0360
T4C0.0394
%
G90
G05
T1
X4.4937Y-2.2622
X4.5134Y-4.1335
X4.5268Y-4.3902
X4.5315Y-4.2736
X4.6634Y-4.2421
X5.162Y-2.9056
X5.2074Y-2.9212
X5.2579Y-4.4268
X5.3677Y-2.4378
X5.4232Y-4.4315
X5.4329Y-3.2056
X5.4394Y-4.1811
X5.4791Y-4.4634
X5.5524Y-4.2537
X5.5815Y-4.3319
X5.6178Y-4.214
X5.6295Y-3.9484
X5.6349Y-4.2901
X5.6397Y-4.3291
X5.6591Y-4.2256
X5.6852Y-4.2798
X5.6883Y-4.3631
X5.717Y-4.3917
X5.7191Y-4.3285
X5.7634Y-4.4768
X5.8307Y-4.1803
X5.8452Y-3.7326
X5.8453Y-4.5093
X5.8472Y-3.7992
X5.8496Y-3.9378
X5.8612Y-4.215
X5.8844Y-3.6911
X5.9021Y-3.6348
X5.9145Y-2.9424
X5.9209Y-4.2089
X5.9358Y-4.5945
X5.9374Y-3.4659
X5.9531Y-4.289
X5.9642Y-4.2313
X5.9744Y-4.3693
X5.9933Y-4.1654
X6.04Y-4.32
X6.1Y-4.249
X6.2Y-4.36
X6.2295Y-4.249
X6.237Y-4.4673
X6.2941Y-4.1819
X6.32Y-4.39
X6.34Y-4.19
X6.3704Y-4.4896
X6.4424Y-4.2192
X6.4508Y-4.1807
X6.4541Y-4.3008
X6.472Y-4.3986
X6.5449Y-4.4398
X7.0134Y-2.4835
X7.3193Y-2.426
T2
X4.2392Y-2.8791
X4.2392Y-2.9791
X4.2392Y-3.0791
X4.2392Y-3.1791
X4.2392Y-3.2791
X4.2392Y-3.3791
X4.2392Y-3.4791
X4.2392Y-3.5791
X4.2392Y-3.6791
X4.2392Y-3.7791
X4.5392Y-2.8791
X4.5392Y-2.9791
X4.5392Y-3.0791
X4.5392Y-3.1791
X4.5392Y-3.2791
X4.5392Y-3.3791
X4.5392Y-3.4791
X4.5392Y-3.5791
X4.5392Y-3.6791
X4.5392Y-3.7791
X4.789Y-2.8791
X4.789Y-2.9791
X4.789Y-3.0791
X4.789Y-3.1791
X4.789Y-3.2791
X4.789Y-3.3791
X4.789Y-3.4791
X4.789Y-3.5791
X4.789Y-3.6791
X4.789Y-3.7791
X5.089Y-2.8791
X5.089Y-2.9791
X5.089Y-3.0791
X5.089Y-3.1791
X5.089Y-3.2791
X5.089Y-3.3791
X5.089Y-3.4791
X5.089Y-3.5791
X5.089Y-3.6791
X5.089Y-3.7791
X5.3569Y-2.8791
X5.3569Y-2.9791
X5.3569Y-3.0791
X5.3569Y-3.1791
X5.3569Y-3.2791
X5.3569Y-3.3791
X5.3569Y-3.4791
X5.3569Y-3.5791
X5.3569Y-3.6791
X5.3569Y-3.7791
X5.6569Y-2.8791
X5.6569Y-2.9791
X5.6569Y-3.0791
X5.6569Y-3.1791
X5.6569Y-3.2791
X5.6569Y-3.3791
X5.6569Y-3.4791
X5.6569Y-3.5791
X5.6569Y-3.6791
X5.6569Y-3.7791
T3
X4.4638Y-2.3626
X4.4638Y-2.5583
X4.5638Y-2.3626
X4.5638Y-2.5583
X4.6638Y-2.3626
X4.6638Y-2.5583
X4.7638Y-2.3626
X4.7638Y-2.5583
X4.8638Y-2.3626
X4.8638Y-2.5583
X4.9638Y-2.3626
X4.9638Y-2.5583
X5.0638Y-2.3626
X5.0638Y-2.5583
X5.1638Y-2.3626
X5.1638Y-2.5583
X5.2638Y-2.3626
X5.2638Y-2.5583
X5.3638Y-2.3626
X5.3638Y-2.5583
X5.4638Y-2.3626
X5.4638Y-2.5583
X5.5638Y-2.3626
X5.5638Y-2.5583
X5.6638Y-2.3626
X5.6638Y-2.5583
X5.7638Y-2.3626
X5.7638Y-2.5583
X5.8638Y-2.3626
X5.8638Y-2.5583
X5.9638Y-2.3626
X5.9638Y-2.5583
X6.0638Y-2.3626
X6.0638Y-2.5583
X6.1638Y-2.3626
X6.1638Y-2.5583
X6.2638Y-2.3626
X6.2638Y-2.5583
X6.3638Y-2.3626
X6.3638Y-2.5583
X6.4638Y-2.3626
X6.4638Y-2.5583
X6.5638Y-2.3626
X6.5638Y-2.5583
X6.6638Y-2.3626
X6.6638Y-2.5583
X6.7638Y-2.3626
X6.7638Y-2.5583
X6.8638Y-2.3626
X6.8638Y-2.5583
X6.9638Y-2.3626
X6.9638Y-2.5583
X7.0638Y-2.3626
X7.0638Y-2.5583
X7.1638Y-2.3626
X7.1638Y-2.5583
X7.2638Y-2.3626
X7.2638Y-2.5583
X7.3638Y-2.3626
X7.3638Y-2.5583
X7.4638Y-2.3626
X7.4638Y-2.5583
X7.5638Y-2.3626
X7.5638Y-2.5583
T4
X4.5795Y-4.085
X4.5795Y-4.685
X4.6795Y-4.085
X4.6795Y-4.685
X4.7795Y-4.085
X4.7795Y-4.685
X4.8795Y-4.085
X4.8795Y-4.685
X4.9795Y-4.085
X4.9795Y-4.685
X5.0795Y-4.085
X5.0795Y-4.685
X5.1795Y-4.085
X5.1795Y-4.685
X5.2795Y-4.085
X5.2795Y-4.685
X5.3795Y-4.085
X5.3795Y-4.685
X5.4795Y-4.085
X5.4795Y-4.685
X5.5795Y-4.085
X5.5795Y-4.685
X5.6795Y-4.085
X5.6795Y-4.685
X5.7795Y-4.085
X5.7795Y-4.685
X5.8795Y-4.085
X5.8795Y-4.685
X5.9795Y-4.085
X5.9795Y-4.685
X6.0795Y-4.085
X6.0795Y-4.685
X6.1795Y-4.085
X6.1795Y-4.685
X6.2795Y-4.085
X6.2795Y-4.685
X6.3795Y-4.085
X6.3795Y-4.685
X6.4795Y-4.085
X6.4795Y-4.685
T0
M30
